<mxfile host="app.diagrams.net" modified="2024-03-07T19:35:22.063Z" agent="Mozilla/5.0 (X11; Ubuntu; Linux x86_64; rv:123.0) Gecko/20100101 Firefox/123.0" etag="5Y4erRvtMO-aIlfw0cFb" version="24.0.2" type="github">
  <diagram name="Page-1" id="VWgly2nOHGJHui8vA40v">
    <mxGraphModel dx="1434" dy="788" grid="1" gridSize="10" guides="1" tooltips="1" connect="1" arrows="1" fold="1" page="1" pageScale="1" pageWidth="850" pageHeight="1100" math="0" shadow="0">
      <root>
        <mxCell id="0" />
        <mxCell id="1" parent="0" />
        <mxCell id="7YZ-ag36RC1AAsRXkEIa-1" value="Usuário" style="shape=umlActor;verticalLabelPosition=bottom;verticalAlign=top;html=1;outlineConnect=0;" vertex="1" parent="1">
          <mxGeometry x="70" y="370" width="30" height="60" as="geometry" />
        </mxCell>
        <mxCell id="7YZ-ag36RC1AAsRXkEIa-2" value="" style="endArrow=classic;html=1;rounded=0;entryX=0;entryY=0.5;entryDx=0;entryDy=0;exitX=0.5;exitY=0;exitDx=0;exitDy=0;exitPerimeter=0;" edge="1" parent="1" source="7YZ-ag36RC1AAsRXkEIa-1" target="7YZ-ag36RC1AAsRXkEIa-7">
          <mxGeometry width="50" height="50" relative="1" as="geometry">
            <mxPoint x="120" y="163.74" as="sourcePoint" />
            <mxPoint x="217.82943644732745" y="133.59401627076852" as="targetPoint" />
          </mxGeometry>
        </mxCell>
        <mxCell id="7YZ-ag36RC1AAsRXkEIa-3" value="" style="endArrow=classic;html=1;rounded=0;entryX=0.013;entryY=0.414;entryDx=0;entryDy=0;entryPerimeter=0;exitX=0.75;exitY=0.1;exitDx=0;exitDy=0;exitPerimeter=0;" edge="1" parent="1" source="7YZ-ag36RC1AAsRXkEIa-1" target="7YZ-ag36RC1AAsRXkEIa-8">
          <mxGeometry width="50" height="50" relative="1" as="geometry">
            <mxPoint x="120" y="183.74" as="sourcePoint" />
            <mxPoint x="340" y="213.74" as="targetPoint" />
          </mxGeometry>
        </mxCell>
        <mxCell id="7YZ-ag36RC1AAsRXkEIa-7" value="Tirar Foto" style="ellipse;whiteSpace=wrap;html=1;" vertex="1" parent="1">
          <mxGeometry x="330" y="123.74000000000001" width="140" height="60" as="geometry" />
        </mxCell>
        <mxCell id="7YZ-ag36RC1AAsRXkEIa-8" value="Fazer Upload da imagem" style="ellipse;whiteSpace=wrap;html=1;" vertex="1" parent="1">
          <mxGeometry x="320" y="233.74" width="160" height="60" as="geometry" />
        </mxCell>
        <mxCell id="7YZ-ag36RC1AAsRXkEIa-11" value="Cortar foto" style="ellipse;whiteSpace=wrap;html=1;" vertex="1" parent="1">
          <mxGeometry x="620.5" y="20" width="140" height="60" as="geometry" />
        </mxCell>
        <mxCell id="7YZ-ag36RC1AAsRXkEIa-12" value="&lt;div&gt;escreve uma redação no papel&amp;nbsp; &amp;nbsp;&amp;nbsp;&amp;nbsp;&amp;nbsp;&amp;nbsp;&amp;nbsp;&amp;nbsp;&amp;nbsp;&amp;nbsp;&amp;nbsp;&amp;nbsp;&amp;nbsp;&amp;nbsp;&amp;nbsp;&amp;nbsp; &amp;nbsp; &amp;nbsp; &amp;nbsp; &amp;nbsp; &amp;nbsp; &amp;nbsp; &amp;nbsp; &amp;nbsp; &amp;nbsp; &amp;nbsp; &amp;nbsp; &amp;nbsp; &amp;nbsp; &amp;nbsp; &amp;nbsp; &amp;nbsp; &amp;nbsp; &amp;nbsp; &amp;nbsp; &amp;nbsp; &amp;nbsp; &amp;nbsp; &amp;nbsp; &amp;nbsp; &amp;nbsp; &amp;nbsp; &amp;nbsp; &amp;nbsp; &amp;nbsp; &amp;nbsp; &amp;nbsp; &amp;nbsp; &amp;nbsp; &amp;nbsp; &amp;nbsp; &amp;nbsp; &amp;nbsp; &amp;nbsp; &amp;nbsp; &amp;nbsp; &amp;nbsp; &amp;nbsp; &amp;nbsp; &amp;nbsp; &amp;nbsp; &amp;nbsp; &amp;nbsp; &amp;nbsp; &amp;nbsp; &amp;nbsp;&amp;nbsp;&amp;nbsp;&amp;nbsp;&amp;nbsp;&amp;nbsp;&amp;nbsp;&amp;nbsp;&amp;nbsp;&amp;nbsp;&amp;nbsp;&amp;nbsp;&amp;nbsp;&amp;nbsp;&amp;nbsp;&amp;nbsp;&amp;nbsp;&amp;nbsp;&amp;nbsp;&amp;nbsp;&amp;nbsp;&amp;nbsp;&amp;nbsp;&amp;nbsp;&amp;nbsp;&amp;nbsp;&amp;nbsp;&amp;nbsp;&amp;nbsp;&amp;nbsp;&amp;nbsp;&amp;nbsp;&amp;nbsp;&amp;nbsp;&amp;nbsp;&amp;nbsp;&amp;nbsp;&amp;nbsp;&amp;nbsp;&amp;nbsp;&amp;nbsp;&amp;nbsp;&amp;nbsp;&amp;nbsp;&amp;nbsp;&amp;nbsp; &lt;/div&gt;" style="text;whiteSpace=wrap;html=1;rotation=-2.8;" vertex="1" parent="1">
          <mxGeometry x="134.04" y="130" width="190" height="30" as="geometry" />
        </mxCell>
        <mxCell id="7YZ-ag36RC1AAsRXkEIa-14" value="Tirar outra foto" style="ellipse;whiteSpace=wrap;html=1;" vertex="1" parent="1">
          <mxGeometry x="620.5" y="133.74" width="140" height="60" as="geometry" />
        </mxCell>
        <mxCell id="7YZ-ag36RC1AAsRXkEIa-18" value="" style="endArrow=classic;html=1;rounded=0;exitX=1;exitY=0.5;exitDx=0;exitDy=0;entryX=0;entryY=0.5;entryDx=0;entryDy=0;" edge="1" parent="1" source="7YZ-ag36RC1AAsRXkEIa-7" target="7YZ-ag36RC1AAsRXkEIa-14">
          <mxGeometry width="50" height="50" relative="1" as="geometry">
            <mxPoint x="459.9974746830583" y="124.95320343559638" as="sourcePoint" />
            <mxPoint x="620.5" y="87.24000000000001" as="targetPoint" />
          </mxGeometry>
        </mxCell>
        <mxCell id="7YZ-ag36RC1AAsRXkEIa-19" value="&amp;lt;&amp;lt;include&amp;gt;&amp;gt;" style="text;html=1;align=center;verticalAlign=middle;whiteSpace=wrap;rounded=0;rotation=5;" vertex="1" parent="1">
          <mxGeometry x="520" y="133.74" width="60" height="30" as="geometry" />
        </mxCell>
        <mxCell id="7YZ-ag36RC1AAsRXkEIa-20" value="Extends" style="endArrow=block;endSize=16;endFill=0;html=1;rounded=0;exitX=1;exitY=0.5;exitDx=0;exitDy=0;entryX=0;entryY=0.5;entryDx=0;entryDy=0;" edge="1" parent="1" source="7YZ-ag36RC1AAsRXkEIa-8" target="7YZ-ag36RC1AAsRXkEIa-21">
          <mxGeometry width="160" relative="1" as="geometry">
            <mxPoint x="510" y="343.74" as="sourcePoint" />
            <mxPoint x="600" y="323.74" as="targetPoint" />
          </mxGeometry>
        </mxCell>
        <mxCell id="7YZ-ag36RC1AAsRXkEIa-21" value="Salvar foto no diretório" style="ellipse;whiteSpace=wrap;html=1;" vertex="1" parent="1">
          <mxGeometry x="590" y="230" width="140" height="60" as="geometry" />
        </mxCell>
        <mxCell id="7YZ-ag36RC1AAsRXkEIa-22" value="" style="endArrow=classic;html=1;rounded=0;entryX=0;entryY=0.5;entryDx=0;entryDy=0;exitX=1;exitY=0;exitDx=0;exitDy=0;" edge="1" parent="1" source="7YZ-ag36RC1AAsRXkEIa-7" target="7YZ-ag36RC1AAsRXkEIa-11">
          <mxGeometry width="50" height="50" relative="1" as="geometry">
            <mxPoint x="449" y="133" as="sourcePoint" />
            <mxPoint x="621" y="50" as="targetPoint" />
          </mxGeometry>
        </mxCell>
        <mxCell id="7YZ-ag36RC1AAsRXkEIa-17" value="&amp;lt;&amp;lt;include&amp;gt;&amp;gt;" style="text;html=1;align=center;verticalAlign=middle;whiteSpace=wrap;rounded=0;rotation=-25;" vertex="1" parent="1">
          <mxGeometry x="500.5" y="70.00000000000001" width="60" height="30" as="geometry" />
        </mxCell>
        <mxCell id="7YZ-ag36RC1AAsRXkEIa-23" value="" style="endArrow=classic;html=1;rounded=0;exitX=1;exitY=0.3333333333333333;exitDx=0;exitDy=0;exitPerimeter=0;entryX=0;entryY=0.5;entryDx=0;entryDy=0;" edge="1" parent="1" source="7YZ-ag36RC1AAsRXkEIa-1" target="7YZ-ag36RC1AAsRXkEIa-24">
          <mxGeometry width="50" height="50" relative="1" as="geometry">
            <mxPoint x="160" y="458.5" as="sourcePoint" />
            <mxPoint x="310" y="360" as="targetPoint" />
            <Array as="points" />
          </mxGeometry>
        </mxCell>
        <mxCell id="7YZ-ag36RC1AAsRXkEIa-24" value="Corrigir " style="ellipse;whiteSpace=wrap;html=1;" vertex="1" parent="1">
          <mxGeometry x="310" y="340" width="160" height="60" as="geometry" />
        </mxCell>
      </root>
    </mxGraphModel>
  </diagram>
</mxfile>
